Coordinates
version=1
nRows=21
nColumns=36
inDegrees=no

Units are S.I. units (second, meters, Newtons, ...)
If the header above contains a line with 'inDegrees', this indicates whether rotational values are in degrees (yes) or radians (no).

endheader
time	pelvis_tilt	pelvis_list	pelvis_rotation	pelvis_tx	pelvis_ty	pelvis_tz	hip_flexion_r	hip_adduction_r	hip_rotation_r	knee_angle_r	knee_adduction_r	ankle_angle_r	subtalar_angle_r	mtp_angle_r	hip_flexion_l	hip_adduction_l	hip_rotation_l	knee_angle_l	knee_adduction_l	ankle_angle_l	subtalar_angle_l	mtp_angle_l	lumbar_extension	lumbar_bending	lumbar_rotation	arm_flex_r	arm_add_r	arm_rot_r	elbow_flex_r	pro_sup_r	arm_flex_l	arm_add_l	arm_rot_l	elbow_flex_l	pro_sup_l
2.785	-0.568577	-0.00950372	-0.0516578	-0.348935	0.680771	-1.20295	1.51184	-0.184217	-0.289077	1.41025	-0.134675	0.454228	-0.036838	-0.114958	1.51315	-0.346446	-0.283123	1.40816	-0.134942	0.482876	-0.00784259	-0.114958	-0.257559	-0.0334591	0.0283449	2.14627	-0.117662	0.409834	0.808397	0.372796	2.34008	-0.0875545	1.19886	0.514983	2.09
2.79	-0.572084	-0.00985047	-0.0534434	-0.35034	0.677069	-1.20294	1.52313	-0.183643	-0.284071	1.42005	-0.1297	0.453494	-0.0498209	-0.114958	1.52529	-0.349166	-0.277002	1.41881	-0.131304	0.482494	-0.0215846	-0.114958	-0.261123	-0.0335096	0.0292337	2.15309	-0.116918	0.409186	0.808332	0.373492	2.34794	-0.0860785	1.20367	0.513027	2.09
2.795	-0.575667	-0.0107634	-0.0551401	-0.351587	0.673423	-1.20288	1.53417	-0.182934	-0.289004	1.42888	-0.13408	0.453612	-0.0576221	-0.114958	1.53771	-0.351917	-0.279141	1.42846	-0.136708	0.48291	-0.030418	-0.114958	-0.264281	-0.0328685	0.0301321	2.15927	-0.116328	0.408992	0.808879	0.372547	2.35519	-0.0865981	1.20029	0.512979	2.09
2.8	-0.57897	-0.0117159	-0.0568483	-0.352857	0.669806	-1.20284	1.54489	-0.182254	-0.292375	1.43779	-0.136727	0.453063	-0.0672574	-0.114958	1.54986	-0.354526	-0.279985	1.43814	-0.140934	0.482691	-0.0407288	-0.114958	-0.267878	-0.0322412	0.0306207	2.16548	-0.115383	0.408206	0.809438	0.371828	2.3622	-0.0865181	1.19816	0.512799	2.09
2.805	-0.581979	-0.0128985	-0.0588476	-0.354092	0.666249	-1.20274	1.55506	-0.180997	-0.29456	1.44656	-0.138078	0.452282	-0.0779578	-0.114958	1.5617	-0.357414	-0.279516	1.44785	-0.144135	0.48226	-0.0517626	-0.114958	-0.27176	-0.031445	0.0316128	2.17172	-0.114498	0.407545	0.809966	0.371023	2.36923	-0.0862098	1.19756	0.511377	2.09
2.81	-0.584807	-0.0140132	-0.0611433	-0.355297	0.662738	-1.2026	1.56495	-0.179224	-0.295689	1.45519	-0.13855	0.451268	-0.0891582	-0.114958	1.57318	-0.3606	-0.277867	1.4576	-0.14608	0.481799	-0.0633087	-0.114958	-0.275758	-0.0308068	0.0328834	2.17788	-0.113569	0.407098	0.810387	0.370306	2.37636	-0.0858501	1.19861	0.508431	2.09
2.815	-0.58733	-0.0149076	-0.0637607	-0.356481	0.659269	-1.20241	1.57456	-0.177006	-0.295995	1.46374	-0.138453	0.449907	-0.100884	-0.114958	1.58416	-0.364105	-0.275167	1.46738	-0.14679	0.481297	-0.0752456	-0.114958	-0.279968	-0.0306216	0.0342836	2.18387	-0.112775	0.406833	0.810828	0.369641	2.38368	-0.0854792	1.20023	0.506441	2.09
2.82	-0.589683	-0.0157027	-0.0659328	-0.357636	0.655799	-1.20226	1.58402	-0.175333	-0.295662	1.47248	-0.137738	0.448395	-0.113051	-0.114958	1.59493	-0.367004	-0.27135	1.47707	-0.146471	0.48068	-0.0873182	-0.114958	-0.284217	-0.0304622	0.0353099	2.18971	-0.112278	0.40717	0.811584	0.368296	2.39086	-0.0850735	1.20089	0.506331	2.09
2.825	-0.591642	-0.0167449	-0.0677325	-0.358735	0.652378	-1.20216	1.59286	-0.174168	-0.294755	1.4813	-0.136062	0.446948	-0.125449	-0.114958	1.60531	-0.369359	-0.266291	1.48676	-0.145285	0.479876	-0.099997	-0.114958	-0.288814	-0.0299435	0.0361983	2.19518	-0.112112	0.407576	0.813101	0.36649	2.3977	-0.0847106	1.19959	0.507934	2.09
2.83	-0.593159	-0.017678	-0.0687967	-0.359758	0.649025	-1.20223	1.60113	-0.174193	-0.292901	1.49029	-0.133423	0.44562	-0.137782	-0.114958	1.61496	-0.370406	-0.260181	1.49639	-0.143019	0.479107	-0.1136	-0.114958	-0.293821	-0.02909	0.0365732	2.20126	-0.111341	0.408095	0.812836	0.364745	2.40407	-0.0843867	1.19792	0.508122	2.09
2.835	-0.59483	-0.0190314	-0.0694285	-0.36078	0.645656	-1.20235	1.60933	-0.174672	-0.288803	1.49944	-0.128015	0.443648	-0.151809	-0.114958	1.62495	-0.370683	-0.250643	1.50615	-0.138017	0.477545	-0.129311	-0.114958	-0.298522	-0.0274754	0.0367038	2.20758	-0.110355	0.409651	0.811921	0.362741	2.41018	-0.0841817	1.1975	0.506643	2.09
2.84	-0.59616	-0.0201894	-0.0700472	-0.361752	0.642313	-1.20245	1.61715	-0.175216	-0.283591	1.50868	-0.121699	0.441994	-0.165641	-0.114958	1.63438	-0.370861	-0.240506	1.51593	-0.13223	0.476346	-0.144786	-0.114958	-0.303406	-0.0261011	0.0369554	2.21375	-0.10971	0.411823	0.811618	0.362119	2.41628	-0.083882	1.19929	0.504608	2.09
2.845	-0.596872	-0.0213144	-0.0705284	-0.362659	0.639023	-1.20254	1.62423	-0.175949	-0.277398	1.51803	-0.11434	0.440479	-0.179773	-0.114958	1.64305	-0.371253	-0.228837	1.52593	-0.124474	0.475103	-0.160304	-0.114958	-0.308719	-0.0248611	0.0374123	2.21966	-0.109385	0.413598	0.810995	0.361707	2.422	-0.0835561	1.1992	0.506518	2.09
2.85	-0.596789	-0.0228754	-0.0706293	-0.363469	0.6357	-1.20269	1.6287	-0.178211	-0.206327	1.53244	-0.0412476	0.437268	-0.213374	-0.114958	1.64923	-0.373028	-0.13707	1.54215	-0.0358136	0.471608	-0.198125	-0.114958	-0.314679	-0.0228695	0.0375871	2.22585	-0.108758	0.415844	0.808777	0.356124	2.42795	-0.0833847	1.20091	0.507256	2.09
2.855	-0.597429	-0.0240389	-0.0702644	-0.36439	0.632506	-1.20286	1.63561	-0.180016	-0.200513	1.5414	-0.0343452	0.435933	-0.225518	-0.114958	1.65785	-0.372509	-0.127444	1.55141	-0.0299039	0.470058	-0.211328	-0.114958	-0.320179	-0.0211838	0.037061	2.23201	-0.107732	0.417189	0.807362	0.355808	2.43475	-0.0830789	1.20702	0.505787	2.09
2.86	-0.597904	-0.0249776	-0.0697505	-0.365285	0.629359	-1.20303	1.64236	-0.181979	-0.195815	1.55018	-0.0288137	0.434914	-0.236647	-0.114958	1.66607	-0.3711	-0.121437	1.56009	-0.0279701	0.469078	-0.223839	-0.114958	-0.3257	-0.0197104	0.0365584	2.23812	-0.10674	0.418368	0.806479	0.357126	2.44199	-0.0825609	1.22179	0.503749	2.09
2.865	-0.598382	-0.026507	-0.0692548	-0.366095	0.626303	-1.20323	1.6487	-0.183916	-0.198056	1.55822	-0.0296381	0.434667	-0.245063	-0.114958	1.67438	-0.36942	-0.11954	1.5683	-0.0309079	0.468748	-0.234547	-0.114958	-0.330928	-0.0170459	0.0372103	2.24417	-0.10561	0.420035	0.805132	0.355431	2.44494	-0.0832517	1.2099	0.505732	2.09
2.87	-0.598325	-0.0284088	-0.068691	-0.366856	0.623344	-1.20345	1.65415	-0.185983	-0.198203	1.5663	-0.0279775	0.434116	-0.254671	-0.114958	1.68214	-0.367758	-0.115899	1.57654	-0.0322086	0.467549	-0.246508	-0.114958	-0.336795	-0.014124	0.0381555	2.25043	-0.105129	0.423034	0.802548	0.356174	2.44808	-0.0833357	1.20346	0.507809	2.09
2.875	-0.598258	-0.029796	-0.0682602	-0.367628	0.620444	-1.20363	1.6597	-0.187547	-0.196137	1.5743	-0.0250333	0.433389	-0.265101	-0.114958	1.6895	-0.366434	-0.110942	1.58463	-0.0313813	0.465989	-0.258672	-0.114958	-0.342743	-0.0119661	0.0387021	2.25666	-0.104553	0.425599	0.800588	0.35762	2.45206	-0.0832887	1.19939	0.509529	2.09
2.88	-0.598042	-0.0306217	-0.0681519	-0.36842	0.617579	-1.20371	1.66531	-0.188184	-0.192285	1.58223	-0.0212883	0.432255	-0.27623	-0.114958	1.69638	-0.365713	-0.104832	1.59267	-0.0287129	0.464307	-0.270744	-0.114958	-0.348903	-0.0107966	0.0390332	2.26301	-0.103833	0.427344	0.798834	0.358895	2.45681	-0.0831402	1.19736	0.51074	2.09
2.885	-0.597782	-0.0310742	-0.0680752	-0.369194	0.614712	-1.20374	1.67092	-0.188618	-0.184685	1.59026	-0.0142589	0.431402	-0.288483	-0.114958	1.70296	-0.365121	-0.095419	1.60089	-0.0223121	0.462237	-0.284038	-0.114958	-0.355021	-0.0102315	0.038968	2.26931	-0.103079	0.428742	0.797004	0.360226	2.46203	-0.0829386	1.19732	0.511504	2.09
